<?xml version="1.0" encoding="utf-8"?>
<!-- Generator: Adobe Illustrator 23.0.2, SVG Export Plug-In . SVG Version: 6.00 Build 0)  -->
<svg version="1.1" id="Capa_1" xmlns="http://www.w3.org/2000/svg" xmlns:xlink="http://www.w3.org/1999/xlink" x="0px" y="0px"
	 viewBox="0 0 299.9 299.9" style="enable-background:new 0 0 299.9 299.9;" xml:space="preserve">
<style type="text/css">
	.st0{fill:#FFFFFF;}
</style>
<g>
	<path class="st0" d="M295.7,67.3c0-3.5-2.8-6.3-6.2-6.3H58.4c-0.4,0-10.7-30.9-10.7-30.9c-0.1-0.3-3.4-6.7-6.6-6.7c0,0,0,0,0,0
		l-30.6,0.1c-3.5,0-6.2,2.8-6.2,6.3c0,3.4,2.8,6.2,6.2,6.2c0,0,0,0,0,0l25.9-0.1l48.9,162.4c4.3,0,13,0,13,0l157.3-0.1
		c2.8,0,5-1.8,5.8-4.3c0.2-0.4,0.4-0.8,0.6-1.2l33.3-122.8c0.2-0.8,0.2-1.6,0.1-2.3C295.6,67.5,295.7,67.4,295.7,67.3z"/>
</g>
<circle class="st0" cx="107.8" cy="248" r="28.5"/>
<circle class="st0" cx="233.6" cy="248" r="28.5"/>
</svg>
