<?xml version="1.0" encoding="utf-8"?>
<!-- Generator: Adobe Illustrator 23.0.2, SVG Export Plug-In . SVG Version: 6.00 Build 0)  -->
<svg version="1.1" id="Layer_1" xmlns="http://www.w3.org/2000/svg" xmlns:xlink="http://www.w3.org/1999/xlink" x="0px" y="0px"
	 viewBox="0 0 511 512" style="enable-background:new 0 0 511 512;" xml:space="preserve">
<style type="text/css">
	.st0{fill:#FFFFFF;}
</style>
<path class="st0" d="M445.4-1h-63.2c-4.1,0-7.5,3.4-7.5,7.5s3.4,7.5,7.5,7.5h55.7v482H169.9c-4.1,0-7.5,3.4-7.5,7.5s3.4,7.5,7.5,7.5
	h275.6c4.1,0,7.5-3.4,7.5-7.5V6.5C452.9,2.4,449.6-1,445.4-1z"/>
<path class="st0" d="M140.1,496H73.5V14h279c4.1,0,7.5-3.4,7.5-7.5S356.7-1,352.5-1H66c-4.1,0-7.5,3.4-7.5,7.5v497
	c0,4.1,3.4,7.5,7.5,7.5h74.1c4.1,0,7.5-3.4,7.5-7.5S144.3,496,140.1,496z"/>
<path class="st0" d="M97.7,45.7v418.6c0,4.1,3.4,7.5,7.5,7.5h301c4.1,0,7.5-3.4,7.5-7.5V45.7c0-4.1-3.4-7.5-7.5-7.5h-301
	C101,38.2,97.7,41.6,97.7,45.7z M112.7,53.2h286v403.6h-286V53.2z"/>
<path class="st0" d="M199.6,140.5h112.2c4.1,0,7.5-3.4,7.5-7.5s-3.4-7.5-7.5-7.5H199.6c-4.1,0-7.5,3.4-7.5,7.5
	S195.5,140.5,199.6,140.5z"/>
<path class="st0" d="M311.8,284H199.6c-4.1,0-7.5,3.4-7.5,7.5c0,4.1,3.4,7.5,7.5,7.5h112.2c4.1,0,7.5-3.4,7.5-7.5
	C319.3,287.4,316,284,311.8,284z"/>
<path class="st0" d="M351,178.3H160.4c-4.1,0-7.5,3.4-7.5,7.5s3.4,7.5,7.5,7.5H351c4.1,0,7.5-3.4,7.5-7.5S355.2,178.3,351,178.3z"/>
<path class="st0" d="M351,231.2H160.4c-4.1,0-7.5,3.4-7.5,7.5c0,4.1,3.4,7.5,7.5,7.5H351c4.1,0,7.5-3.4,7.5-7.5
	C358.5,234.5,355.2,231.2,351,231.2z"/>
</svg>
