<?xml version="1.0" encoding="utf-8"?>
<!-- Generator: Adobe Illustrator 23.0.2, SVG Export Plug-In . SVG Version: 6.00 Build 0)  -->
<svg version="1.1" id="Layer_1" xmlns="http://www.w3.org/2000/svg" xmlns:xlink="http://www.w3.org/1999/xlink" x="0px" y="0px"
	 viewBox="0 0 512 512" style="enable-background:new 0 0 512 512;" xml:space="preserve">
<style type="text/css">
	.st0{fill:#FFFFFF;}
</style>
<g>
	<path class="st0" d="M8.5,187.5c2.3,0,4.4-0.9,6.1-2.5c3.3-3.4,3.3-8.8,0-12.1l-1.3-1c-0.5-0.3-1-0.6-1.5-0.8
		c-0.5-0.2-1-0.4-1.5-0.5c-0.6-0.1-1.1-0.2-1.7-0.2c-2.3,0-4.4,0.9-6.1,2.5c-0.8,0.8-1.4,1.8-1.8,2.8c-1.3,3.2-0.6,6.8,1.8,9.3
		c0.8,0.8,1.8,1.4,2.8,1.8C6.3,187.2,7.4,187.5,8.5,187.5z"/>
	<path class="st0" d="M469.3,68H42.7C19.1,68,0,87.1,0,110.7v34.1c0,4.7,3.8,8.5,8.5,8.5c4.7,0,8.5-3.8,8.5-8.5v-34.1
		c0-14.1,11.5-25.6,25.6-25.6h426.7c14.1,0,25.6,11.5,25.6,25.6v290.1c0,14.1-11.5,25.6-25.6,25.6H42.7c-14.1,0-25.6-11.5-25.6-25.6
		V213.1c0-4.7-3.8-8.5-8.5-8.5c-4.7,0-8.5,3.8-8.5,8.5v187.7c0,23.6,19.1,42.6,42.7,42.7h426.7c23.6,0,42.6-19.1,42.7-42.7V110.7
		C512,87.1,492.9,68,469.3,68z"/>
	<path class="st0" d="M42.7,178.9c4.7,0,8.5-3.8,8.5-8.5v-42.7c0-0.6,0.1-1.2,0.2-1.8c0.1-0.5,0.3-1.1,0.5-1.6
		c0.2-0.5,0.5-1,0.8-1.5c0.3-0.5,0.7-0.9,1.1-1.3c0.4-0.4,0.8-0.7,1.2-1c0.5-0.3,0.9-0.6,1.5-0.8c0.5-0.2,1-0.4,1.5-0.5
		c0.6-0.1,1.2-0.2,1.8-0.2h42.7c4.7,0,8.5-3.8,8.5-8.5c0-4.7-3.8-8.5-8.5-8.5H59.7c-1.7,0-3.5,0.2-5.2,0.5c-1.6,0.3-3.3,0.8-4.8,1.5
		c-4.6,1.9-8.5,5.1-11.2,9.2c-0.9,1.4-1.7,2.8-2.4,4.4c-0.6,1.5-1.1,3.1-1.5,4.8c-0.4,1.7-0.5,3.5-0.5,5.2v42.7
		C34.1,175.1,38,178.9,42.7,178.9z"/>
	<path class="st0" d="M34.1,383.7c0,1.7,0.2,3.4,0.5,5.1c0.7,3.3,2,6.4,3.8,9.2c2.8,4.1,6.7,7.3,11.2,9.3c3.2,1.3,6.6,2,10,2h42.7
		c4.7,0,8.5-3.8,8.5-8.5c0-4.7-3.8-8.5-8.5-8.5H59.7c-1.1,0-2.3-0.2-3.3-0.7c-0.5-0.2-1-0.5-1.4-0.8c-0.5-0.3-0.9-0.7-1.3-1.1
		c-0.4-0.4-0.7-0.8-1-1.3c-0.3-0.5-0.6-0.9-0.8-1.4c-0.2-0.5-0.4-1.1-0.5-1.6c-0.1-0.6-0.2-1.1-0.2-1.7v-42.7c0-4.7-3.8-8.5-8.5-8.5
		c-4.7,0-8.5,3.8-8.5,8.5V383.7z"/>
	<path class="st0" d="M409.6,409.3h42.7c1.7,0,3.4-0.2,5.1-0.5c1.6-0.3,3.3-0.8,4.8-1.5c4.6-1.9,8.5-5.1,11.2-9.2
		c0.9-1.4,1.7-2.8,2.4-4.4c0.6-1.5,1.1-3.1,1.5-4.8c0.4-1.7,0.6-3.4,0.6-5.2v-42.7c0-4.7-3.8-8.5-8.5-8.5c-4.7,0-8.5,3.8-8.5,8.5
		v42.7c0,0.6-0.1,1.1-0.2,1.7c-0.1,0.5-0.3,1.1-0.5,1.6c-0.2,0.5-0.5,1-0.8,1.5c-0.3,0.5-0.7,0.9-1.1,1.3c-0.4,0.4-0.8,0.7-1.2,1
		c-0.5,0.3-0.9,0.6-1.5,0.8c-0.5,0.2-1,0.4-1.5,0.5c-0.6,0.1-1.2,0.2-1.8,0.2h-42.7c-4.7,0-8.5,3.8-8.5,8.5
		C401.1,405.5,404.9,409.3,409.6,409.3z"/>
	<path class="st0" d="M469.3,178.9c4.7,0,8.5-3.8,8.5-8.5v-42.7c0-1.7-0.2-3.4-0.5-5.1c-0.7-3.3-2-6.4-3.8-9.2
		c-2.8-4.1-6.7-7.3-11.2-9.3c-3.2-1.3-6.6-2-10-2h-42.7c-4.7,0-8.5,3.8-8.5,8.5c0,4.7,3.8,8.5,8.5,8.5h42.7c1.1,0,2.3,0.2,3.3,0.7
		c0.5,0.2,1,0.5,1.4,0.8c0.5,0.3,0.9,0.7,1.3,1.1c0.4,0.4,0.7,0.8,1,1.3c0.3,0.5,0.6,0.9,0.8,1.4c0.2,0.5,0.4,1.1,0.5,1.6
		c0.1,0.6,0.2,1.1,0.2,1.7v42.7C460.8,175.1,464.6,178.9,469.3,178.9z"/>
</g>
</svg>
